<?xml version="1.0" encoding="iso-8859-1"?>
<!-- Generator: Adobe Illustrator 19.0.0, SVG Export Plug-In . SVG Version: 6.00 Build 0)  -->
<svg version="1.1" id="Layer_1" xmlns="http://www.w3.org/2000/svg" xmlns:xlink="http://www.w3.org/1999/xlink" x="0px" y="0px"
	 viewBox="0 0 508 508" style="enable-background:new 0 0 508 508;" xml:space="preserve">
<circle style="fill:#22c62a;" cx="254" cy="254" r="254"/>
<path style="fill:#f8f8f8;" d="M170.1,247.3l33.9-24.7c11.8-8.6,13.2-25.8,2.8-36.1l-40.1-40.1c-9.2-9.2-24.2-9.2-33.3,0
	c-26.8,26.8-37.1,52.3-36,77.4c0.9,20.6,10.5,39.9,25.1,54.5l114.3,114.3c14.6,14.6,33.9,24.2,54.5,25.1c25.1,1.1,50.6-9.3,77.4-36
	c9.2-9.2,9.2-24.2,0-33.3l-40.1-40.1c-10.3-10.3-27.5-9-36.1,2.8L267.8,345L170.1,247.3z"/>
<g>
	<path style="fill:#ebebeb;" d="M133.5,146.2l-0.2,0.2c-3.2,3.2-6.1,6.4-8.9,9.6l72,72l7.5-5.5c11.8-8.6,13.2-25.8,2.8-36.1
		l-39.9-39.9C157.7,137.4,142.7,137,133.5,146.2z"/>
	<path style="fill:#ebebeb;" d="M368.8,381.5l-0.2,0.2c-3.2,3.2-6.4,6.1-9.6,8.9l-72-72l5.5-7.5c8.6-11.8,25.8-13.2,36.1-2.8
		l39.9,39.9C377.6,357.3,378,372.3,368.8,381.5z"/>
</g>
<g>
	<path style="fill:#FFFFFF;" d="M367.4,249.3h-19.9c0-52.8-43-95.8-95.8-95.8v-19.9C315.5,133.6,367.4,185.5,367.4,249.3z"/>
	<path style="fill:#FFFFFF;" d="M410.8,249.3h-19.9c0-76.7-62.4-139.1-139.1-139.1V90.3C339.4,90.3,410.8,161.6,410.8,249.3z"/>
	<path style="fill:#FFFFFF;" d="M321.4,249.3h-19.9c0-27.4-22.3-49.7-49.7-49.7v-19.9C290.1,179.6,321.4,210.9,321.4,249.3z"/>
</g>
<g>
</g>
<g>
</g>
<g>
</g>
<g>
</g>
<g>
</g>
<g>
</g>
<g>
</g>
<g>
</g>
<g>
</g>
<g>
</g>
<g>
</g>
<g>
</g>
<g>
</g>
<g>
</g>
<g>
</g>
</svg>
